<svg width="32" height="32" viewBox="0 0 32 32" fill="none" xmlns="http://www.w3.org/2000/svg">

<path fill-rule="evenodd" clip-rule="evenodd" d="M10.5789 21.4211C10.1883 21.0306 10.1883 20.3974 10.5789 20.0069L12.818 17.7677C13.2086 17.3772 13.8417 17.3772 14.2322 17.7677C14.6228 18.1582 14.6228 18.7914 14.2322 19.1819L11.9931 21.4211C11.6025 21.8116 10.9694 21.8116 10.5789 21.4211ZM15.0572 16.9428C14.6667 16.5522 14.6667 15.9191 15.0572 15.5285L19.5355 11.0502C19.9261 10.6597 20.5592 10.6597 20.9498 11.0502C21.3403 11.4407 21.3403 12.0739 20.9498 12.4644L16.4714 16.9428C16.0809 17.3333 15.4477 17.3333 15.0572 16.9428Z" fill="white"/>
<path fill-rule="evenodd" clip-rule="evenodd" d="M13.1144 11.2859C13.1144 10.7337 13.5621 10.2859 14.1144 10.2859L20.7141 10.2859C21.2663 10.286 21.7141 10.7337 21.7141 11.2859L21.7141 17.8856C21.7141 18.4379 21.2663 18.8856 20.7141 18.8856C20.1618 18.8856 19.7141 18.4379 19.7141 17.8856L19.7141 12.2859L14.1144 12.2859C13.5621 12.2859 13.1144 11.8382 13.1144 11.2859Z" fill="white"/>
</svg>
