<svg width="35" height="35" viewBox="0 0 35 35" fill="none" xmlns="http://www.w3.org/2000/svg">
<defs>
    <style>

  
      stroke {
        fill: #000000;
      
      }
    
      @media (prefers-color-scheme:dark) {
   
        stroke {
             fill:#FFFFFF;
        }
      }
    </style>
  </defs>





<path d="M28.4792 21.3362C28.6987 20.6646 29.4479 20.0317 30.1583 19.9412L31.7212 19.7346C32.4317 19.6442 33 18.9854 33 18.275V16.725C33 16.0146 32.4187 15.3558 31.7212 15.2654L30.1454 15.0587C29.435 14.9683 28.6858 14.3354 28.4662 13.6637L27.9496 12.4237C27.6137 11.7908 27.6912 10.8221 28.1175 10.2537L29.0862 8.975C29.5125 8.40667 29.4479 7.52833 28.9442 7.0375L27.9108 6.00417C27.4071 5.50042 26.5287 5.44875 25.9604 5.875L24.6558 6.86958C24.0875 7.29583 23.1188 7.38625 22.4858 7.06333C21.8658 6.74042 20.0058 5.61667 19.9154 4.90625L19.7217 3.29167C19.6312 2.58125 18.9854 2 18.275 2H16.725C16.0146 2 15.3558 2.58125 15.2654 3.27875L15.0587 4.89333C14.9683 5.60375 14.3354 6.35292 13.6637 6.5725L12.4108 7.08917C11.7908 7.41208 10.8092 7.33458 10.2408 6.89542L8.96208 5.92667C8.39375 5.50042 7.52833 5.55208 7.02458 6.05583L5.99125 7.08917C5.4875 7.60583 5.43583 8.47125 5.875 9.02667L6.84375 10.2667C7.28292 10.835 7.37333 11.8037 7.0375 12.4237L6.52083 13.6767C6.30125 14.3483 5.53917 14.9812 4.84167 15.0717L3.27875 15.2654C2.58125 15.3558 2 16.0146 2 16.725V18.275C2 18.9854 2.58125 19.6442 3.27875 19.7217L4.81583 19.9154C5.52625 20.0058 6.27542 20.6258 6.495 21.3104L7.01167 22.5633C7.33458 23.1962 7.27 24.1779 6.84375 24.7463L5.90083 26.025C5.4875 26.5933 5.55208 27.4717 6.05583 27.9754L7.08917 29.0087C7.59292 29.5125 8.47125 29.5642 9.03958 29.1379L10.2925 28.1821C10.8608 27.7558 11.8425 27.6654 12.4625 27.9883C13.0954 28.3113 14.9554 29.4479 15.0587 30.1454L15.2654 31.7083C15.3558 32.4187 16.0146 32.9871 16.725 32.9871H18.275C18.9854 32.9871 19.6442 32.4058 19.7346 31.7083L19.9412 30.1325C20.0317 29.4221 20.6646 28.6729 21.3362 28.4533L22.5504 27.9625C23.1833 27.6396 24.165 27.7171 24.7333 28.1304L26.0121 29.0733C26.5804 29.4996 27.4587 29.4221 27.9625 28.9183L28.9958 27.885C29.4996 27.3813 29.5512 26.5029 29.125 25.9475L28.1692 24.6946C27.7429 24.1262 27.6525 23.1575 27.9754 22.5246C28.3112 21.9046 28.4792 21.3362 28.4792 21.3362Z"  stroke-width="2.5" stroke-miterlimit="10" stroke-linecap="round"/>
<path d="M17.5 23.3125C20.7102 23.3125 23.3125 20.7102 23.3125 17.5C23.3125 14.2898 20.7102 11.6875 17.5 11.6875C14.2898 11.6875 11.6875 14.2898 11.6875 17.5C11.6875 20.7102 14.2898 23.3125 17.5 23.3125Z"  stroke-width="2.5" stroke-miterlimit="10" stroke-linecap="round"/>
</svg>
