<svg id="Layer_1" data-name="Layer 1" xmlns="http://www.w3.org/2000/svg" viewBox="0 0 174 46"><defs><style>.cls-1,.cls-5{fill:#356dff;}.cls-2,.cls-4{fill:#fff;}.cls-3,.cls-4,.cls-5{isolation:isolate;}.cls-4,.cls-5{font-size:34px;font-family:Gilroy-Light, Gilroy;font-weight:300;}</style></defs><g id="Group_3" data-name="Group 3"><circle id="Ellipse_6" data-name="Ellipse 6" class="cls-1" cx="23" cy="23" r="23"/><path id="Icon_awesome-rocket" data-name="Icon awesome-rocket" class="cls-2" d="M32,14.49a.72.72,0,0,0-.53-.53,16.43,16.43,0,0,0-3.57-.34c-4.45,0-7.12,2.39-9.12,5.53h-4.5a2.08,2.08,0,0,0-1.86,1.15l-2.13,4.32a1,1,0,0,0,.4,1.36l.06,0a1.12,1.12,0,0,0,.47.11h4.48l-1,1a1.38,1.38,0,0,0,0,1.95h0l2.2,2.2a1.38,1.38,0,0,0,1.95,0h0l1-1v4.49a1,1,0,0,0,1,1,1.12,1.12,0,0,0,.47-.11l4.26-2.13a2.07,2.07,0,0,0,1.14-1.85V27.18c3.14-2,5.53-4.69,5.53-9.12a15.25,15.25,0,0,0-.3-3.57Zm-5.23,6.43a1.73,1.73,0,1,1,1.72-1.74h0a1.72,1.72,0,0,1-1.71,1.73Z"/></g><g class="cls-3"><text class="cls-4" transform="translate(56.36 34.46)">Start</text><text class="cls-5" transform="translate(132.89 34.46)">up</text></g></svg>