<svg id="Layer_1" data-name="Layer 1" xmlns="http://www.w3.org/2000/svg" viewBox="0 0 174 46"><defs><style>
.cls-1{fill:#356dff;}.cls-2{fill:#fff;}.cls-3{font-size:34px;fill:#0b0d39;font-family:Gilroy-Light, Gilroy;font-weight:300;}
 
 path{fill:#0b0d39;}
      
 
 
  @media (prefers-color-scheme:dark) {
   path{fill:#fff;}
      }

</style></defs><g id="Group_3" data-name="Group 3"><circle id="Ellipse_6" data-name="Ellipse 6" class="cls-1" cx="23" cy="23" r="23"/><path id="Icon_awesome-rocket" data-name="Icon awesome-rocket" class="cls-2" d="M33.8,16.87a.7.7,0,0,0-.53-.53A16.4,16.4,0,0,0,29.7,16c-4.45,0-7.12,2.39-9.12,5.53h-4.5a2.09,2.09,0,0,0-1.86,1.15L12.09,27a1,1,0,0,0,.46,1.39,1.12,1.12,0,0,0,.47.11H17.5l-1,1a1.38,1.38,0,0,0,0,1.95h0l2.2,2.2a1.38,1.38,0,0,0,1.95,0h0l1-1v4.49a1,1,0,0,0,1,1,1,1,0,0,0,.47-.11l4.26-2.13a2.05,2.05,0,0,0,1.14-1.85V29.56c3.14-2,5.53-4.69,5.53-9.12a15.25,15.25,0,0,0-.3-3.57ZM28.57,23.3a1.73,1.73,0,1,1,1.72-1.73,1.72,1.72,0,0,1-1.72,1.73Z" transform="translate(-1.76 -2.38)"/></g><text class="cls-3" transform="translate(56.36 34.46)">Start<tspan class="cls-1" x="76.53" y="0">up</tspan></text></svg>