<svg width="170" height="270" viewBox="0 0 170 270"  xmlns="http://www.w3.org/2000/svg">
 <defs>
    <style>

  
      path {
        fill: #F65529;
      
      }
    
      @media (prefers-color-scheme:dark) {
     path {
             fill:#FFFFFF;
        }
      }
    </style>
  </defs>
<path d="M122.5 80.39C113.51 91.61 104.49 102.8 95.46 113.99C94.22 115.53 92.89 116.97 91.04 119.1V54.23H91.03C90.95 53.06 90.91 51.89 90.93 50.71C90.92 49.37 90.9 48.02 90.89 46.68C90.87 44.25 90.86 41.82 90.85 39.39C90.83 39.39 90.8 39.39 90.78 39.39C90.78 29.18 90.84 19.37 90.74 9.56999C90.72 7.32999 90.74 4.43999 89.71 3.02999C88.47 1.31999 85.51 -0.580011 84.42 0.179989C82.48 1.51999 80.32 4.69999 80.15 7.28999C79.62 15.83 79.94 24.46 79.93 33.05C79.93 35.1 79.93 37.15 79.93 39.63C79.86 39.63 79.79 39.62 79.72 39.61C79.79 46.53 79.82 55.44 79.52 56.94V118.48C79.06 118.87 78.59 119.25 78.13 119.63C68.2 106.63 58.27 93.64 48.34 80.63C45.67 77.13 42.68 75.72 39.7 79.62C36.93 83.25 38.04 86.87 40.62 90.07C54.03 106.71 67.43 123.36 80.82 140.01C83.68 143.56 86.6 143.92 89.55 140.27C103.08 123.49 116.6 106.69 130.12 89.89C132.72 86.65 133.6 82.98 130.79 79.44C127.94 75.88 125.09 77.15 122.5 80.39Z" />
<path d="M169.76 74.91C169.76 74.43 169.81 73.97 169.88 73.52C168.85 68.72 167.42 64 165.51 59.36C149.88 21.52 111.02 0.529993 69.7 7.70999C31.57 14.34 1.55002 48.36 0.460021 87.88C-0.419979 119.51 0.240021 151.18 0.190021 182.83C0.150021 205.33 7.86002 224.79 22.87 241.49C38.56 258.93 61.26 268.68 84.55 269.12C84.53 265.47 84.52 261.79 84.53 258.54C50.53 258.22 19.3 232.82 12.6 199.11C11.47 193.43 10.89 187.55 10.85 181.76C10.67 151.94 10.63 122.12 10.77 92.3C10.96 52.69 40.92 20.25 80.03 17.03C116.96 13.99 150.32 38.56 159.01 74.68C159.42 75.28 159.77 75.93 160.03 76.62C160.68 77.12 161.29 77.66 161.81 78.28C162.46 78.45 163.09 78.67 163.7 78.93C164.03 78.94 164.37 78.95 164.7 78.98C165.23 78.87 165.76 78.74 166.28 78.6C166.83 78.11 167.42 77.68 168.06 77.3C168.1 77.25 168.15 77.19 168.19 77.14C168.72 76.47 169.24 75.81 169.78 75.15C169.77 75.06 169.76 74.99 169.76 74.91Z" />
</svg>
